solid OpenSCAD_Model
  facet normal -1 0 0
    outer loop
      vertex 9 0.144714 2.65065
      vertex 9 40.4641 4
      vertex 9 40.4641 0
    endloop
  endfacet
  facet normal -1 -0 0
    outer loop
      vertex 9 40.4641 4
      vertex 9 0.144714 2.65065
      vertex 9 18.4641 26.9808
    endloop
  endfacet
  facet normal -1 -0 0
    outer loop
      vertex 9 18.4641 26.9808
      vertex 9 0.144714 2.65065
      vertex 9 15.2598 28.8308
    endloop
  endfacet
  facet normal -1 0 0
    outer loop
      vertex 9 0.144714 2.65065
      vertex 9 -49 4
      vertex 9 -46.1553 15.0567
    endloop
  endfacet
  facet normal -1 0 0
    outer loop
      vertex 9 -49 0
      vertex 9 0.144714 2.65065
      vertex 9 40.4641 0
    endloop
  endfacet
  facet normal -1 -0 0
    outer loop
      vertex 9 0.144714 2.65065
      vertex 9 -49 0
      vertex 9 -49 4
    endloop
  endfacet
  facet normal -1 0 0
    outer loop
      vertex 9 -46.1553 15.0567
      vertex 9 -49 18.2453
      vertex 9 -43.8119 19.1155
    endloop
  endfacet
  facet normal -1 0 0
    outer loop
      vertex 9 -49 18.2453
      vertex 9 -46.1553 15.0567
      vertex 9 -49 4
    endloop
  endfacet
  facet normal 1 0 0
    outer loop
      vertex 21 -43.8119 19.1155
      vertex 21 -49 18.2453
      vertex 21 -46.1553 15.0567
    endloop
  endfacet
  facet normal 1 0 0
    outer loop
      vertex 21 -46.1553 15.0567
      vertex 21 -39 4
      vertex 21 0.144714 2.65065
    endloop
  endfacet
  facet normal 1 0 0
    outer loop
      vertex 21 -49 4
      vertex 21 -46.1553 15.0567
      vertex 21 -49 18.2453
    endloop
  endfacet
  facet normal 1 0 0
    outer loop
      vertex 21 -46.1553 15.0567
      vertex 21 -49 4
      vertex 21 -39 4
    endloop
  endfacet
  facet normal 1 0 0
    outer loop
      vertex 21 18.4641 26.9808
      vertex 21 30.4641 4
      vertex 21 40.4641 4
    endloop
  endfacet
  facet normal 1 0 0
    outer loop
      vertex 21 0.144714 2.65065
      vertex 21 30.4641 4
      vertex 21 18.4641 26.9808
    endloop
  endfacet
  facet normal 1 0 0
    outer loop
      vertex 21 0.144714 2.65065
      vertex 21 18.4641 26.9808
      vertex 21 15.2598 28.8308
    endloop
  endfacet
  facet normal 1 0 0
    outer loop
      vertex 21 30.4641 4
      vertex 21 0.144714 2.65065
      vertex 21 30.4641 0
    endloop
  endfacet
  facet normal 1 0 0
    outer loop
      vertex 21 -39 0
      vertex 21 0.144714 2.65065
      vertex 21 -39 4
    endloop
  endfacet
  facet normal 1 0 0
    outer loop
      vertex 21 0.144714 2.65065
      vertex 21 -39 0
      vertex 21 30.4641 0
    endloop
  endfacet
  facet normal 0 0.722353 0.691524
    outer loop
      vertex 21 40.4641 4
      vertex 9 18.4641 26.9808
      vertex 21 18.4641 26.9808
    endloop
  endfacet
  facet normal 0 0.722353 0.691524
    outer loop
      vertex 9 18.4641 26.9808
      vertex 21 40.4641 4
      vertex 9 40.4641 4
    endloop
  endfacet
  facet normal -0 0.499999 0.866026
    outer loop
      vertex 9 18.4641 26.9808
      vertex 21 15.2598 28.8308
      vertex 21 18.4641 26.9808
    endloop
  endfacet
  facet normal 0 0.499999 0.866026
    outer loop
      vertex 21 15.2598 28.8308
      vertex 9 18.4641 26.9808
      vertex 9 15.2598 28.8308
    endloop
  endfacet
  facet normal 0 -0.866026 0.499999
    outer loop
      vertex 9 0.144714 2.65065
      vertex 21 15.2598 28.8308
      vertex 9 15.2598 28.8308
    endloop
  endfacet
  facet normal 0 -0.866026 0.499999
    outer loop
      vertex 21 15.2598 28.8308
      vertex 9 0.144714 2.65065
      vertex 21 0.144714 2.65065
    endloop
  endfacet
  facet normal -0 0.258819 0.965926
    outer loop
      vertex 9 0.144714 2.65065
      vertex 21 -46.1553 15.0567
      vertex 21 0.144714 2.65065
    endloop
  endfacet
  facet normal 0 0.258819 0.965926
    outer loop
      vertex 21 -46.1553 15.0567
      vertex 9 0.144714 2.65065
      vertex 9 -46.1553 15.0567
    endloop
  endfacet
  facet normal 0 0.866021 -0.500008
    outer loop
      vertex 21 -46.1553 15.0567
      vertex 9 -43.8119 19.1155
      vertex 21 -43.8119 19.1155
    endloop
  endfacet
  facet normal 0 0.866021 -0.500008
    outer loop
      vertex 9 -43.8119 19.1155
      vertex 21 -46.1553 15.0567
      vertex 9 -46.1553 15.0567
    endloop
  endfacet
  facet normal 0 -0.165419 0.986223
    outer loop
      vertex 9 -43.8119 19.1155
      vertex 21 -49 18.2453
      vertex 21 -43.8119 19.1155
    endloop
  endfacet
  facet normal 0 -0.165419 0.986223
    outer loop
      vertex 21 -49 18.2453
      vertex 9 -43.8119 19.1155
      vertex 9 -49 18.2453
    endloop
  endfacet
  facet normal 0 -1 0
    outer loop
      vertex 9 -49 4
      vertex 21 -49 18.2453
      vertex 9 -49 18.2453
    endloop
  endfacet
  facet normal 0 -1 -0
    outer loop
      vertex 21 -49 18.2453
      vertex 9 -49 4
      vertex 21 -49 4
    endloop
  endfacet
  facet normal 0 0 -1
    outer loop
      vertex 112.8 -49 0
      vertex 100.8 -39 0
      vertex 112.8 40.4641 0
    endloop
  endfacet
  facet normal 0 0 -1
    outer loop
      vertex 112.8 -49 0
      vertex 21 -39 0
      vertex 100.8 -39 0
    endloop
  endfacet
  facet normal -0 0 -1
    outer loop
      vertex 21 -39 0
      vertex 9 -49 0
      vertex 21 30.4641 0
    endloop
  endfacet
  facet normal 0 0 -1
    outer loop
      vertex 9 -49 0
      vertex 21 -39 0
      vertex 112.8 -49 0
    endloop
  endfacet
  facet normal 0 0 -1
    outer loop
      vertex 100.8 30.4641 0
      vertex 112.8 40.4641 0
      vertex 100.8 -39 0
    endloop
  endfacet
  facet normal 0 0 -1
    outer loop
      vertex 21 30.4641 0
      vertex 112.8 40.4641 0
      vertex 100.8 30.4641 0
    endloop
  endfacet
  facet normal 0 0 -1
    outer loop
      vertex 21 30.4641 0
      vertex 9 40.4641 0
      vertex 112.8 40.4641 0
    endloop
  endfacet
  facet normal 0 0 -1
    outer loop
      vertex 9 40.4641 0
      vertex 21 30.4641 0
      vertex 9 -49 0
    endloop
  endfacet
  facet normal -1 0 0
    outer loop
      vertex 100.8 0.144714 2.65065
      vertex 100.8 30.4641 4
      vertex 100.8 30.4641 0
    endloop
  endfacet
  facet normal -1 -0 0
    outer loop
      vertex 100.8 30.4641 4
      vertex 100.8 0.144714 2.65065
      vertex 100.8 18.4641 26.9808
    endloop
  endfacet
  facet normal -1 -0 0
    outer loop
      vertex 100.8 18.4641 26.9808
      vertex 100.8 0.144714 2.65065
      vertex 100.8 15.2598 28.8308
    endloop
  endfacet
  facet normal -1 0 0
    outer loop
      vertex 100.8 -39 0
      vertex 100.8 0.144714 2.65065
      vertex 100.8 30.4641 0
    endloop
  endfacet
  facet normal -1 0 0
    outer loop
      vertex 100.8 -39 4
      vertex 100.8 0.144714 2.65065
      vertex 100.8 -39 0
    endloop
  endfacet
  facet normal -1 0 0
    outer loop
      vertex 100.8 -39 4
      vertex 100.8 -46.1553 15.0567
      vertex 100.8 0.144714 2.65065
    endloop
  endfacet
  facet normal -1 0 -0
    outer loop
      vertex 100.8 -46.1553 15.0567
      vertex 100.8 -39 4
      vertex 100.8 -49 4
    endloop
  endfacet
  facet normal -1 0 0
    outer loop
      vertex 100.8 40.4641 4
      vertex 100.8 30.4641 4
      vertex 100.8 18.4641 26.9808
    endloop
  endfacet
  facet normal -1 0 0
    outer loop
      vertex 100.8 -46.1553 15.0567
      vertex 100.8 -49 18.2453
      vertex 100.8 -43.8119 19.1155
    endloop
  endfacet
  facet normal -1 0 0
    outer loop
      vertex 100.8 -49 18.2453
      vertex 100.8 -46.1553 15.0567
      vertex 100.8 -49 4
    endloop
  endfacet
  facet normal 1 0 0
    outer loop
      vertex 112.8 -43.8119 19.1155
      vertex 112.8 -49 18.2453
      vertex 112.8 -46.1553 15.0567
    endloop
  endfacet
  facet normal 1 0 0
    outer loop
      vertex 112.8 0.144714 2.65065
      vertex 112.8 40.4641 4
      vertex 112.8 18.4641 26.9808
    endloop
  endfacet
  facet normal 1 0 0
    outer loop
      vertex 112.8 0.144714 2.65065
      vertex 112.8 18.4641 26.9808
      vertex 112.8 15.2598 28.8308
    endloop
  endfacet
  facet normal 1 0 0
    outer loop
      vertex 112.8 40.4641 4
      vertex 112.8 0.144714 2.65065
      vertex 112.8 40.4641 0
    endloop
  endfacet
  facet normal 1 0 0
    outer loop
      vertex 112.8 -49 4
      vertex 112.8 -46.1553 15.0567
      vertex 112.8 -49 18.2453
    endloop
  endfacet
  facet normal 1 -0 0
    outer loop
      vertex 112.8 -49 4
      vertex 112.8 0.144714 2.65065
      vertex 112.8 -46.1553 15.0567
    endloop
  endfacet
  facet normal 1 0 0
    outer loop
      vertex 112.8 -49 0
      vertex 112.8 0.144714 2.65065
      vertex 112.8 -49 4
    endloop
  endfacet
  facet normal 1 0 0
    outer loop
      vertex 112.8 0.144714 2.65065
      vertex 112.8 -49 0
      vertex 112.8 40.4641 0
    endloop
  endfacet
  facet normal 0 0.722353 0.691524
    outer loop
      vertex 112.8 40.4641 4
      vertex 100.8 18.4641 26.9808
      vertex 112.8 18.4641 26.9808
    endloop
  endfacet
  facet normal 0 0.722353 0.691524
    outer loop
      vertex 100.8 18.4641 26.9808
      vertex 112.8 40.4641 4
      vertex 100.8 40.4641 4
    endloop
  endfacet
  facet normal -0 0.499999 0.866026
    outer loop
      vertex 100.8 18.4641 26.9808
      vertex 112.8 15.2598 28.8308
      vertex 112.8 18.4641 26.9808
    endloop
  endfacet
  facet normal 0 0.499999 0.866026
    outer loop
      vertex 112.8 15.2598 28.8308
      vertex 100.8 18.4641 26.9808
      vertex 100.8 15.2598 28.8308
    endloop
  endfacet
  facet normal 0 -0.866026 0.499999
    outer loop
      vertex 100.8 0.144714 2.65065
      vertex 112.8 15.2598 28.8308
      vertex 100.8 15.2598 28.8308
    endloop
  endfacet
  facet normal 0 -0.866026 0.499999
    outer loop
      vertex 112.8 15.2598 28.8308
      vertex 100.8 0.144714 2.65065
      vertex 112.8 0.144714 2.65065
    endloop
  endfacet
  facet normal -0 0.258819 0.965926
    outer loop
      vertex 100.8 0.144714 2.65065
      vertex 112.8 -46.1553 15.0567
      vertex 112.8 0.144714 2.65065
    endloop
  endfacet
  facet normal 0 0.258819 0.965926
    outer loop
      vertex 112.8 -46.1553 15.0567
      vertex 100.8 0.144714 2.65065
      vertex 100.8 -46.1553 15.0567
    endloop
  endfacet
  facet normal 0 0.866021 -0.500008
    outer loop
      vertex 112.8 -46.1553 15.0567
      vertex 100.8 -43.8119 19.1155
      vertex 112.8 -43.8119 19.1155
    endloop
  endfacet
  facet normal 0 0.866021 -0.500008
    outer loop
      vertex 100.8 -43.8119 19.1155
      vertex 112.8 -46.1553 15.0567
      vertex 100.8 -46.1553 15.0567
    endloop
  endfacet
  facet normal 0 -0.165419 0.986223
    outer loop
      vertex 100.8 -43.8119 19.1155
      vertex 112.8 -49 18.2453
      vertex 112.8 -43.8119 19.1155
    endloop
  endfacet
  facet normal 0 -0.165419 0.986223
    outer loop
      vertex 112.8 -49 18.2453
      vertex 100.8 -43.8119 19.1155
      vertex 100.8 -49 18.2453
    endloop
  endfacet
  facet normal 0 -1 0
    outer loop
      vertex 100.8 -49 4
      vertex 112.8 -49 18.2453
      vertex 100.8 -49 18.2453
    endloop
  endfacet
  facet normal 0 -1 -0
    outer loop
      vertex 112.8 -49 18.2453
      vertex 100.8 -49 4
      vertex 112.8 -49 4
    endloop
  endfacet
  facet normal 0 0 1
    outer loop
      vertex 100.8 -39 4
      vertex 21 -39 4
      vertex 100.8 -49 4
    endloop
  endfacet
  facet normal 0 0 1
    outer loop
      vertex 21 -49 4
      vertex 100.8 -49 4
      vertex 21 -39 4
    endloop
  endfacet
  facet normal 0 0 0
    outer loop
      vertex 21 -49 4
      vertex 112.8 -49 4
      vertex 100.8 -49 4
    endloop
  endfacet
  facet normal 0 0 -0
    outer loop
      vertex 21 -49 4
      vertex 9 -49 4
      vertex 112.8 -49 4
    endloop
  endfacet
  facet normal 0 1 -0
    outer loop
      vertex 100.8 -39 0
      vertex 21 -39 4
      vertex 100.8 -39 4
    endloop
  endfacet
  facet normal 0 1 0
    outer loop
      vertex 21 -39 4
      vertex 100.8 -39 0
      vertex 21 -39 0
    endloop
  endfacet
  facet normal 0 -1 0
    outer loop
      vertex 9 -49 0
      vertex 112.8 -49 4
      vertex 9 -49 4
    endloop
  endfacet
  facet normal 0 -1 -0
    outer loop
      vertex 112.8 -49 4
      vertex 9 -49 0
      vertex 112.8 -49 0
    endloop
  endfacet
  facet normal 0 0 1
    outer loop
      vertex 100.8 40.4641 4
      vertex 21 40.4641 4
      vertex 100.8 30.4641 4
    endloop
  endfacet
  facet normal 0 0 0
    outer loop
      vertex 112.8 40.4641 4
      vertex 21 40.4641 4
      vertex 100.8 40.4641 4
    endloop
  endfacet
  facet normal 0 0 0
    outer loop
      vertex 9 40.4641 4
      vertex 21 40.4641 4
      vertex 112.8 40.4641 4
    endloop
  endfacet
  facet normal 0 0 1
    outer loop
      vertex 100.8 30.4641 4
      vertex 21 40.4641 4
      vertex 21 30.4641 4
    endloop
  endfacet
  facet normal 0 1 -0
    outer loop
      vertex 112.8 40.4641 0
      vertex 9 40.4641 4
      vertex 112.8 40.4641 4
    endloop
  endfacet
  facet normal 0 1 0
    outer loop
      vertex 9 40.4641 4
      vertex 112.8 40.4641 0
      vertex 9 40.4641 0
    endloop
  endfacet
  facet normal 0 -1 0
    outer loop
      vertex 21 30.4641 0
      vertex 100.8 30.4641 4
      vertex 21 30.4641 4
    endloop
  endfacet
  facet normal 0 -1 -0
    outer loop
      vertex 100.8 30.4641 4
      vertex 21 30.4641 0
      vertex 100.8 30.4641 0
    endloop
  endfacet
endsolid OpenSCAD_Model
